<svg width="1187" height="699" viewBox="0 0 1187 699" fill="none" xmlns="http://www.w3.org/2000/svg">
<path d="M120.223 644.354L119.647 644.584L120.108 644.699L120.223 644.354ZM122.412 643.087V643.432L122.642 643.317L122.412 643.087ZM123.564 643.663V643.432L123.449 643.548L123.564 643.663ZM123.334 643.432V643.317H123.103L123.334 643.432ZM33.4667 567.752L33.3515 568.559L33.582 570.862L33.4667 567.752ZM32.8907 564.642L33.0059 565.679L33.1211 565.333L32.8907 564.642ZM123.334 642.05L123.449 641.359L122.988 641.589L123.334 642.05ZM136.468 647.694L136.353 647.579L136.583 648.04L136.468 647.694ZM127.942 643.663L126.675 642.511V645.275L127.942 643.663ZM130.823 646.197L130.707 645.391L128.749 645.275L130.823 646.197ZM137.735 647.81L137.62 648.04H137.851L137.735 647.81ZM138.196 647.925H137.966L138.427 648.04L138.196 647.925ZM139.579 648.386H139.464H139.348H139.579ZM37.8449 570.286L38.3057 570.402L38.6514 570.286H37.8449ZM137.044 646.773L136.122 646.658L136.468 647.003L137.044 646.773ZM31.6233 561.302L30.0103 560.61L29.8951 560.956L31.6233 561.302ZM139.924 647.003L139.694 646.888V647.003H139.924ZM146.952 648.386L142.459 648.731L141.422 649.192L146.952 648.386ZM23.4431 543.217H22.1758L22.4062 543.562L23.4431 543.217ZM160.893 653.684V653.224H160.663L160.893 653.684ZM166.884 653.8L167.115 653.569L166.884 653.339V653.8ZM171.378 655.067L171.608 654.951H171.493L171.378 655.067ZM167.691 652.993L167.576 652.532H167.345L167.691 652.993ZM175.41 654.721L175.295 654.836H175.41V654.721ZM24.1344 537.342L22.4062 537.572L24.5953 539.531L24.1344 537.342ZM169.304 652.993L169.534 652.302H169.419L169.304 652.993ZM188.775 651.265L188.89 651.035L188.66 650.92L188.775 651.265ZM185.895 650.229L181.862 653.8L184.743 653.569L188.084 650.92L185.895 650.229ZM193.153 651.496L192.347 651.265L192.923 651.726L193.153 651.496ZM194.766 651.611L193.499 651.265L193.268 651.381L194.766 651.611ZM190.388 649.998H189.121L191.31 650.574L190.388 649.998ZM195.688 651.15L195.573 650.92L195.112 651.035L195.688 651.15ZM192.232 649.768L191.771 649.537V650.805L192.232 649.768ZM206.979 652.648L206.864 652.532H206.633L206.979 652.648ZM207.209 652.532V652.417L206.979 652.302L207.209 652.532ZM205.251 651.841L205.481 652.302V652.187L205.251 651.841ZM206.288 651.841L205.251 651.496L206.518 652.417L206.288 651.841ZM221.496 652.417L221.265 651.956H221.15L221.496 652.417ZM345.466 644.699L345.236 644.469L345.351 644.699H345.466ZM205.827 648.27V648.155L205.712 648.27H205.827ZM348.807 642.626L349.153 643.087H349.383L348.807 642.626ZM222.878 651.265L222.763 651.381V651.726L222.878 651.265ZM208.592 649.192L208.822 648.27H208.707L208.592 649.192ZM355.49 639.977L354.453 640.553L355.374 641.013L355.49 639.977ZM202.025 646.082L199.144 646.658L196.61 649.998L202.025 646.082ZM222.648 650.459L221.957 651.035L222.648 650.92V650.459ZM355.49 639.401L355.259 638.94L355.144 639.17L355.49 639.401ZM211.587 647.464L210.781 647.349L211.587 648.155V647.464ZM347.886 640.898L347.655 641.129L347.886 641.935V640.898ZM213.431 647.349L213.085 647.464L213.546 647.81L213.431 647.349ZM221.957 649.768H221.611L221.381 649.537L221.957 649.768ZM212.509 647.349L211.933 647.003L212.164 647.349H212.509ZM220.229 648.616L219.192 648.961L218.5 650.805L220.229 648.616ZM345.351 640.553V641.359L345.812 640.783L345.351 640.553ZM206.633 644.93L207.555 644.699H207.44L206.633 644.93ZM205.481 644.239L205.251 644.008V644.124L205.481 644.239ZM345.351 639.746L345.12 639.631L345.005 639.977L345.351 639.746ZM218.961 646.658L218.731 646.542L218.5 646.888L218.961 646.658ZM344.199 639.977L344.314 639.401L344.084 639.285L344.199 639.977ZM343.277 639.401L342.931 639.861L343.507 639.977L343.277 639.401ZM223.8 645.045L223.57 644.815H223.454L223.8 645.045ZM342.931 637.327L343.853 637.673L344.199 637.212L342.931 637.327ZM344.314 636.521L343.968 636.751L344.544 637.097L344.314 636.521ZM341.664 637.212L341.434 636.751L341.203 636.982L341.664 637.212ZM353.185 632.95L351.688 637.212L353.185 636.291V632.95ZM343.047 634.563L342.01 635.599L342.24 636.751L343.047 634.563ZM235.782 643.778V643.317L235.667 643.548L235.782 643.778ZM341.779 633.411L345.12 638.479L352.609 643.202L350.881 639.17L343.738 633.065L341.779 633.411ZM231.174 641.935L231.059 641.589L230.828 641.705L231.174 641.935ZM345.697 631.453L345.236 633.18L346.042 632.604L345.697 631.453ZM348.116 631.453L348.001 632.604L349.038 632.95L348.116 631.453ZM234.861 640.437L234.285 640.322L233.709 640.553L234.861 640.437ZM246.728 641.359L246.267 642.165L246.497 641.474L246.728 641.359ZM248.456 641.474L247.419 641.589L247.995 642.281L248.456 641.474ZM178.636 626.73L179.788 627.306L179.558 627.075L178.636 626.73ZM224.722 638.018H224.837V637.903L224.722 638.018ZM343.853 629.149L344.429 631.337L345.581 630.646L343.853 629.149ZM338.899 630.07L339.475 635.369L340.627 634.217L338.899 630.07ZM339.475 628.342L342.125 632.029L341.779 629.61L339.475 628.342ZM331.295 629.264L330.603 631.453L331.525 629.955L331.295 629.264ZM250.069 635.139L249.838 634.793L250.069 635.254V635.139ZM331.525 627.536L336.134 635.139L335.442 629.955L331.525 627.536ZM256.521 631.568L256.175 631.913L256.751 632.144L256.521 631.568ZM255.023 631.798L255.138 631.453H254.678L255.023 631.798ZM253.871 631.798L250.875 633.756L247.189 638.594L249.032 640.553L257.558 634.217L253.871 631.798ZM326.571 624.311L325.764 623.85V624.541L326.571 624.311ZM253.18 630.416L253.295 630.877L254.101 631.337L253.18 630.416ZM328.76 622.122L326.456 623.274L328.645 623.965L328.76 622.122ZM327.262 622.122L327.032 621.892L326.917 622.122H327.262ZM334.29 620.279L333.369 619.934L333.138 620.625L334.29 620.279ZM329.336 621.085L328.53 620.97V621.201L329.336 621.085ZM331.871 620.164L336.595 627.075L335.327 620.74L331.871 620.164ZM255.83 627.651L253.064 629.725L254.332 631.107L258.019 628.342L255.83 627.651ZM224.491 623.274L224.376 623.159V623.274H224.491ZM223.224 622.698L223.109 622.122V622.353L223.224 622.698ZM258.595 624.196L258.364 624.311V624.426L258.595 624.196ZM257.443 623.965H257.327L257.097 624.311L257.443 623.965ZM260.208 623.044L259.862 622.813V622.929L260.208 623.044ZM261.129 622.928L260.784 622.698V622.813L261.129 622.928ZM259.632 622.583H259.171V622.698L259.632 622.583ZM282.559 620.279L282.675 619.934L282.444 620.164L282.559 620.279ZM289.587 616.593L290.97 614.865L290.509 615.211L289.587 616.593ZM275.531 616.363L275.992 616.017L276.107 615.556L275.531 616.363ZM275.531 615.096L275.07 615.441L275.877 615.211L275.531 615.096ZM256.636 615.096L256.521 614.635H256.406L256.636 615.096ZM275.07 614.98L274.609 615.441L274.379 615.902L275.07 614.98ZM287.744 613.598H287.859H287.974H287.744ZM288.32 613.598L288.09 613.483V613.598H288.32ZM286.937 613.483L287.053 613.598V613.483H286.937ZM277.49 614.174L277.951 613.713L277.375 614.174H277.49ZM278.872 613.137L276.107 617.63L279.679 613.483L278.872 613.137ZM275.301 613.713L274.955 613.252L274.84 613.483L275.301 613.713ZM284.057 612.676L283.827 612.561L283.942 612.676H284.057ZM287.053 612.907V612.1L286.822 612.446L287.053 612.907ZM202.486 604.037L196.955 603.807L200.757 607.838L202.486 604.037ZM281.177 612.216L281.407 613.022L281.983 612.1L281.177 612.216ZM276.568 612.1L276.222 614.635L276.799 613.022L276.568 612.1ZM275.416 610.488L275.531 610.833L275.762 610.718L275.416 610.488ZM274.84 610.949L274.609 610.257L274.264 610.488L274.84 610.949ZM280.255 609.566V609.105L279.909 609.336L280.255 609.566ZM275.07 608.875V610.027L275.416 609.221L275.07 608.875ZM206.172 593.209L206.403 592.518L206.288 592.633L206.172 593.209ZM206.518 592.057L206.403 591.942L206.288 592.057H206.518ZM214.353 586.067L213.892 585.837V585.952L214.353 586.067ZM213.661 585.607V585.376L213.431 585.607H213.661ZM195.227 580.193L194.997 579.617L194.881 579.271L195.227 580.193ZM196.955 578.119H197.071L197.186 578.235L196.955 578.119ZM193.845 577.543L192.923 576.391L193.614 577.313L193.845 577.543ZM192.001 575.7H191.771L192.116 575.816L192.001 575.7ZM222.533 583.418L221.265 583.533L221.957 583.879L222.533 583.418ZM190.734 572.245L189.812 575.7L192.692 576.161L196.494 580.077L198.799 579.041L190.734 572.245ZM210.896 573.627V573.396V573.512V573.627ZM205.135 561.417L204.905 561.301L205.02 561.417H205.135ZM208.477 562.569L208.822 562.453H208.707L208.477 562.569ZM210.781 561.877H211.127L212.164 561.417L210.781 561.877ZM214.929 560.61L215.159 560.38L214.813 560.61H214.929ZM215.505 560.495L216.196 560.15L215.62 560.265L215.505 560.495ZM217.233 559.804L216.657 559.919V560.034L217.233 559.804ZM291.2 538.954L290.739 538.609L289.933 538.263L291.2 538.954ZM230.828 536.42L231.865 535.038L231.289 535.499L230.828 536.42ZM232.211 534.808L232.672 534.116L232.441 534.347L232.211 534.808ZM232.902 533.886L233.709 533.195L233.248 533.425L232.902 533.886ZM269.194 534.116L269.771 534.692H270.116L269.194 534.116ZM250.645 526.514L245.921 530.43L243.041 529.624L236.358 533.425L235.091 532.619L227.487 541.143L219.768 542.871L220.459 547.018L223.915 551.741L230.367 557.961L229.33 560.38L234.169 562.453L231.635 562.914L228.524 560.495L230.137 564.066L228.063 565.333L221.496 559.343L216.311 560.265L207.44 563.605L211.472 568.098L210.896 570.862L213.546 574.087L222.302 577.543L228.639 574.318L229.676 576.737L227.948 583.994H222.648L216.426 586.758L216.081 584.8L212.855 586.067L211.357 589.408L206.057 593.439V599.314L208.131 600.236L206.518 605.189L213.431 611.179L217.809 609.336L216.887 616.708L218.155 618.321L223.455 619.473L225.413 621.661L230.022 622.007L232.211 624.311L236.935 622.928L234.745 625.923L233.017 632.028L218.961 641.128L217.118 642.971L214.468 641.935L210.205 642.971L204.099 647.003L213.661 644.238L215.044 646.312L227.372 642.28L227.717 643.893L232.556 639.055L242.695 632.028L243.502 632.489L252.373 625.462L250.069 622.698L253.064 617.745L260.899 608.414L266.89 607.262L268.734 608.529L261.475 610.603L259.516 618.321L259.747 622.467L262.282 622.237L274.494 614.865L275.416 612.1L274.379 607.838L278.066 608.76L280.716 607.032L288.32 611.64L287.744 612.907L305.026 615.095L309.058 613.828L310.211 615.556L325.188 622.698L327.723 621.2L327.954 612.561L329.912 616.478L339.59 623.504L340.397 626.384L348.807 631.107L350.996 637.212L353.07 632.489L357.333 640.783L360.213 636.06L357.909 630.185L349.038 629.264L335.442 616.247L328.069 610.833L322.423 616.362H319.082L311.363 611.294L303.759 610.948L292.929 542.641L291.085 539.415L286.707 536.766L280.14 538.033L275.07 536.996L268.618 534.462L261.821 534.923L260.093 531.697L254.677 530.891L253.756 528.933L251.336 531.697L250.645 526.514Z" fill="#598392"/>
<path d="M124.486 645.045V645.16M121.375 642.511V642.396M207.785 650.689V650.805M210.666 648.616L210.55 648.386M216.657 641.82H216.542M224.376 638.134L224.491 638.018M227.833 636.751L227.948 636.636M239.124 634.908L239.008 634.793M176.562 592.979L176.678 592.518M266.314 607.493V607.147M211.587 589.293V589.178M211.587 588.832L211.472 588.602M213.661 585.837H213.546M192.232 574.433L192.001 574.318M120.223 644.354L119.647 644.584L120.108 644.699L120.223 644.354ZM122.412 643.087V643.432L122.642 643.317L122.412 643.087ZM123.564 643.663V643.432L123.449 643.548L123.564 643.663ZM123.334 643.432V643.317H123.103L123.334 643.432ZM33.4667 567.752L33.3515 568.559L33.582 570.862L33.4667 567.752ZM32.8907 564.642L33.0059 565.679L33.1211 565.333L32.8907 564.642ZM123.334 642.05L123.449 641.359L122.988 641.589L123.334 642.05ZM136.468 647.694L136.353 647.579L136.583 648.04L136.468 647.694ZM127.942 643.663L126.675 642.511V645.275L127.942 643.663ZM130.823 646.197L130.707 645.391L128.749 645.275L130.823 646.197ZM137.735 647.81L137.62 648.04H137.851L137.735 647.81ZM138.196 647.925H137.966L138.427 648.04L138.196 647.925ZM139.579 648.386H139.464H139.348H139.579ZM37.8449 570.286L38.3057 570.402L38.6514 570.286H37.8449ZM137.044 646.773L136.122 646.658L136.468 647.003L137.044 646.773ZM31.6233 561.302L30.0103 560.61L29.8951 560.956L31.6233 561.302ZM139.924 647.003L139.694 646.888V647.003H139.924ZM146.952 648.386L142.459 648.731L141.422 649.192L146.952 648.386ZM23.4431 543.217H22.1758L22.4062 543.562L23.4431 543.217ZM160.893 653.684V653.224H160.663L160.893 653.684ZM166.884 653.8L167.115 653.569L166.884 653.339V653.8ZM171.378 655.067L171.608 654.951H171.493L171.378 655.067ZM167.691 652.993L167.576 652.532H167.345L167.691 652.993ZM175.41 654.721L175.295 654.836H175.41V654.721ZM24.1344 537.342L22.4062 537.572L24.5953 539.531L24.1344 537.342ZM169.304 652.993L169.534 652.302H169.419L169.304 652.993ZM188.775 651.265L188.89 651.035L188.66 650.92L188.775 651.265ZM185.895 650.229L181.862 653.8L184.743 653.569L188.084 650.92L185.895 650.229ZM193.153 651.496L192.347 651.265L192.923 651.726L193.153 651.496ZM194.766 651.611L193.499 651.265L193.268 651.381L194.766 651.611ZM190.388 649.998H189.121L191.31 650.574L190.388 649.998ZM195.688 651.15L195.573 650.92L195.112 651.035L195.688 651.15ZM192.232 649.768L191.771 649.537V650.805L192.232 649.768ZM206.979 652.648L206.864 652.532H206.633L206.979 652.648ZM207.209 652.532V652.417L206.979 652.302L207.209 652.532ZM205.251 651.841L205.481 652.302V652.187L205.251 651.841ZM206.288 651.841L205.251 651.496L206.518 652.417L206.288 651.841ZM221.496 652.417L221.265 651.956H221.15L221.496 652.417ZM345.466 644.699L345.236 644.469L345.351 644.699H345.466ZM205.827 648.27V648.155L205.712 648.27H205.827ZM348.807 642.626L349.153 643.087H349.383L348.807 642.626ZM222.878 651.265L222.763 651.381V651.726L222.878 651.265ZM208.592 649.192L208.822 648.27H208.707L208.592 649.192ZM355.49 639.977L354.453 640.553L355.374 641.013L355.49 639.977ZM202.025 646.082L199.144 646.658L196.61 649.998L202.025 646.082ZM222.648 650.459L221.957 651.035L222.648 650.92V650.459ZM355.49 639.401L355.259 638.94L355.144 639.17L355.49 639.401ZM211.587 647.464L210.781 647.349L211.587 648.155V647.464ZM347.886 640.898L347.655 641.129L347.886 641.935V640.898ZM213.431 647.349L213.085 647.464L213.546 647.81L213.431 647.349ZM221.957 649.768H221.611L221.381 649.537L221.957 649.768ZM212.509 647.349L211.933 647.003L212.164 647.349H212.509ZM220.229 648.616L219.192 648.961L218.5 650.805L220.229 648.616ZM345.351 640.553V641.359L345.812 640.783L345.351 640.553ZM206.633 644.93L207.555 644.699H207.44L206.633 644.93ZM205.481 644.239L205.251 644.008V644.124L205.481 644.239ZM345.351 639.746L345.12 639.631L345.005 639.977L345.351 639.746ZM218.961 646.658L218.731 646.542L218.5 646.888L218.961 646.658ZM344.199 639.977L344.314 639.401L344.084 639.285L344.199 639.977ZM343.277 639.401L342.931 639.861L343.507 639.977L343.277 639.401ZM223.8 645.045L223.57 644.815H223.454L223.8 645.045ZM342.931 637.327L343.853 637.673L344.199 637.212L342.931 637.327ZM344.314 636.521L343.968 636.751L344.544 637.097L344.314 636.521ZM341.664 637.212L341.434 636.751L341.203 636.982L341.664 637.212ZM353.185 632.95L351.688 637.212L353.185 636.291V632.95ZM343.047 634.563L342.01 635.599L342.24 636.751L343.047 634.563ZM235.782 643.778V643.317L235.667 643.548L235.782 643.778ZM341.779 633.411L345.12 638.479L352.609 643.202L350.881 639.17L343.738 633.065L341.779 633.411ZM231.174 641.935L231.059 641.589L230.828 641.705L231.174 641.935ZM345.697 631.453L345.236 633.18L346.042 632.604L345.697 631.453ZM348.116 631.453L348.001 632.604L349.038 632.95L348.116 631.453ZM234.861 640.437L234.285 640.322L233.709 640.553L234.861 640.437ZM246.728 641.359L246.267 642.165L246.497 641.474L246.728 641.359ZM248.456 641.474L247.419 641.589L247.995 642.281L248.456 641.474ZM178.636 626.73L179.788 627.306L179.558 627.075L178.636 626.73ZM224.722 638.018H224.837V637.903L224.722 638.018ZM343.853 629.149L344.429 631.337L345.581 630.646L343.853 629.149ZM338.899 630.07L339.475 635.369L340.627 634.217L338.899 630.07ZM339.475 628.342L342.125 632.029L341.779 629.61L339.475 628.342ZM331.295 629.264L330.603 631.453L331.525 629.955L331.295 629.264ZM250.069 635.139L249.838 634.793L250.069 635.254V635.139ZM331.525 627.536L336.134 635.139L335.442 629.955L331.525 627.536ZM256.521 631.568L256.175 631.913L256.751 632.144L256.521 631.568ZM255.023 631.798L255.138 631.453H254.678L255.023 631.798ZM253.871 631.798L250.875 633.756L247.189 638.594L249.032 640.553L257.558 634.217L253.871 631.798ZM326.571 624.311L325.764 623.85V624.541L326.571 624.311ZM253.18 630.416L253.295 630.877L254.101 631.337L253.18 630.416ZM328.76 622.122L326.456 623.274L328.645 623.965L328.76 622.122ZM327.262 622.122L327.032 621.892L326.917 622.122H327.262ZM334.29 620.279L333.369 619.934L333.138 620.625L334.29 620.279ZM329.336 621.085L328.53 620.97V621.201L329.336 621.085ZM331.871 620.164L336.595 627.075L335.327 620.74L331.871 620.164ZM255.83 627.651L253.064 629.725L254.332 631.107L258.019 628.342L255.83 627.651ZM224.491 623.274L224.376 623.159V623.274H224.491ZM223.224 622.698L223.109 622.122V622.353L223.224 622.698ZM258.595 624.196L258.364 624.311V624.426L258.595 624.196ZM257.443 623.965H257.327L257.097 624.311L257.443 623.965ZM260.208 623.044L259.862 622.813V622.929L260.208 623.044ZM261.129 622.928L260.784 622.698V622.813L261.129 622.928ZM259.632 622.583H259.171V622.698L259.632 622.583ZM282.559 620.279L282.675 619.934L282.444 620.164L282.559 620.279ZM289.587 616.593L290.97 614.865L290.509 615.211L289.587 616.593ZM275.531 616.363L275.992 616.017L276.107 615.556L275.531 616.363ZM275.531 615.096L275.07 615.441L275.877 615.211L275.531 615.096ZM256.636 615.096L256.521 614.635H256.406L256.636 615.096ZM275.07 614.98L274.609 615.441L274.379 615.902L275.07 614.98ZM287.744 613.598H287.859H287.974H287.744ZM288.32 613.598L288.09 613.483V613.598H288.32ZM286.937 613.483L287.053 613.598V613.483H286.937ZM277.49 614.174L277.951 613.713L277.375 614.174H277.49ZM278.872 613.137L276.107 617.63L279.679 613.483L278.872 613.137ZM275.301 613.713L274.955 613.252L274.84 613.483L275.301 613.713ZM284.057 612.676L283.827 612.561L283.942 612.676H284.057ZM287.053 612.907V612.1L286.822 612.446L287.053 612.907ZM202.486 604.037L196.955 603.807L200.757 607.838L202.486 604.037ZM281.177 612.216L281.407 613.022L281.983 612.1L281.177 612.216ZM276.568 612.1L276.222 614.635L276.799 613.022L276.568 612.1ZM275.416 610.488L275.531 610.833L275.762 610.718L275.416 610.488ZM274.84 610.949L274.609 610.257L274.264 610.488L274.84 610.949ZM280.255 609.566V609.105L279.909 609.336L280.255 609.566ZM275.07 608.875V610.027L275.416 609.221L275.07 608.875ZM206.172 593.209L206.403 592.518L206.288 592.633L206.172 593.209ZM206.518 592.057L206.403 591.942L206.288 592.057H206.518ZM214.353 586.067L213.892 585.837V585.952L214.353 586.067ZM213.661 585.607V585.376L213.431 585.607H213.661ZM195.227 580.193L194.997 579.617L194.881 579.271L195.227 580.193ZM196.955 578.119H197.071L197.186 578.235L196.955 578.119ZM193.845 577.543L192.923 576.391L193.614 577.313L193.845 577.543ZM192.001 575.7H191.771L192.116 575.816L192.001 575.7ZM222.533 583.418L221.265 583.533L221.957 583.879L222.533 583.418ZM190.734 572.245L189.812 575.7L192.692 576.161L196.494 580.077L198.799 579.041L190.734 572.245ZM210.896 573.627V573.396V573.512V573.627ZM205.135 561.417L204.905 561.301L205.02 561.417H205.135ZM208.477 562.569L208.822 562.453H208.707L208.477 562.569ZM210.781 561.877H211.127L212.164 561.417L210.781 561.877ZM214.929 560.61L215.159 560.38L214.813 560.61H214.929ZM215.505 560.495L216.196 560.15L215.62 560.265L215.505 560.495ZM217.233 559.804L216.657 559.919V560.034L217.233 559.804ZM291.2 538.954L290.739 538.609L289.933 538.263L291.2 538.954ZM230.828 536.42L231.865 535.038L231.289 535.499L230.828 536.42ZM232.211 534.808L232.672 534.116L232.441 534.347L232.211 534.808ZM232.902 533.886L233.709 533.195L233.248 533.425L232.902 533.886ZM269.194 534.116L269.771 534.692H270.116L269.194 534.116ZM250.645 526.514L245.921 530.43L243.041 529.624L236.358 533.425L235.091 532.619L227.487 541.143L219.768 542.871L220.459 547.018L223.915 551.741L230.367 557.961L229.33 560.38L234.169 562.453L231.635 562.914L228.524 560.495L230.137 564.066L228.063 565.333L221.496 559.343L216.311 560.265L207.44 563.605L211.472 568.098L210.896 570.862L213.546 574.087L222.302 577.543L228.639 574.318L229.676 576.737L227.948 583.994H222.648L216.426 586.758L216.081 584.8L212.855 586.067L211.357 589.408L206.057 593.439V599.314L208.131 600.236L206.518 605.189L213.431 611.179L217.809 609.336L216.887 616.708L218.155 618.321L223.455 619.473L225.413 621.661L230.022 622.007L232.211 624.311L236.935 622.928L234.745 625.923L233.017 632.028L218.961 641.128L217.118 642.971L214.468 641.935L210.205 642.971L204.099 647.003L213.661 644.238L215.044 646.312L227.372 642.28L227.717 643.893L232.556 639.055L242.695 632.028L243.502 632.489L252.373 625.462L250.069 622.698L253.064 617.745L260.899 608.414L266.89 607.262L268.734 608.529L261.475 610.603L259.516 618.321L259.747 622.467L262.282 622.237L274.494 614.865L275.416 612.1L274.379 607.838L278.066 608.76L280.716 607.032L288.32 611.64L287.744 612.907L305.026 615.095L309.058 613.828L310.211 615.556L325.188 622.698L327.723 621.2L327.954 612.561L329.912 616.478L339.59 623.504L340.397 626.384L348.807 631.107L350.996 637.212L353.07 632.489L357.333 640.783L360.213 636.06L357.909 630.185L349.038 629.264L335.442 616.247L328.069 610.833L322.423 616.362H319.082L311.363 611.294L303.759 610.948L292.929 542.641L291.085 539.415L286.707 536.766L280.14 538.033L275.07 536.996L268.618 534.462L261.821 534.923L260.093 531.697L254.677 530.891L253.756 528.933L251.336 531.697L250.645 526.514Z" stroke="#01161E" stroke-width="2" stroke-linejoin="round"/>
</svg>
