<svg width="1187" height="699" viewBox="0 0 1187 699" fill="none" xmlns="http://www.w3.org/2000/svg">
<path d="M244.539 431.712L244.999 434.247V434.707L244.539 431.712ZM227.602 421.806L228.409 423.534L228.869 423.419L227.602 421.806V421.806ZM247.765 421.46L248.11 424.455L250.184 425.953L247.765 421.46ZM233.824 405.103L232.556 404.758L233.593 405.219L233.824 405.103V405.103ZM221.035 401.648L217.924 403.491L218.731 404.297L221.035 401.648V401.648ZM215.044 399.459L214.813 400.381L215.85 400.611L215.044 399.459V399.459ZM225.183 401.763L230.252 404.643L231.174 403.836L225.183 401.763ZM185.895 300.28L185.779 300.395L185.895 300.28ZM198.223 300.856L198.107 300.511V300.971L198.223 300.856V300.856ZM264.701 213.427L260.208 212.275L210.896 198.682L192.577 193.153V193.614L191.54 205.018L186.701 218.495L178.636 228.517L178.406 233.585L182.323 240.612L184.282 249.827L181.517 257.314L181.977 264.802L180.595 267.912L185.319 278.164L188.314 282.08L188.084 293.254L195.227 300.05L199.375 293.138L203.868 296.709L205.596 295.097L199.375 296.249L199.259 302.123L200.527 309.495L197.07 306.155L195.112 301.663L194.536 307.883L196.149 320.208L202.601 328.156L198.338 333.685L199.029 340.712L203.638 347.854L211.703 369.97L214.237 371.353L213.431 386.673L214.698 388.516L231.98 394.736L237.28 400.381L239.123 404.067L244.193 406.946L249.723 407.983L252.027 414.319L256.636 416.507L263.549 424.686L270.001 435.399L269.54 445.305L273.112 450.028L320.234 454.635L324.382 454.405L326.225 449.337L322.654 446.687L322.769 438.278L324.843 437.817L328.99 427.681L331.525 422.958L337.977 419.157L334.405 414.319L330.373 403.491L330.603 400.611V400.496L327.608 396.464L318.391 384.139L300.532 359.027L275.646 323.318L261.59 303.851L247.995 284.269L263.664 217.804L264.701 213.427L264.701 213.427Z" fill="#E0F6F6" stroke="#01161E" stroke-width="2" stroke-linejoin="round"/>
</svg>
