<svg width="1187" height="699" viewBox="0 0 1187 699" fill="none" xmlns="http://www.w3.org/2000/svg">
<path d="M192.577 193.153L210.896 198.683L260.207 212.275L264.701 213.427L267.927 214.233L297.076 221.145L313.321 224.716L316.547 225.407L317.008 222.988L327.953 177.603L324.842 170.231L325.188 167.351L337.17 151.685L342.816 137.516L338.899 133.254L338.783 131.066V130.951L336.594 130.49L304.219 123.118L302.491 123.924L296.154 122.887L283.365 124.27L275.531 123.233L267.235 123.118L266.544 121.044L249.032 119.431L242.81 116.091L242.004 113.902L242.695 105.263L238.547 100.771L238.202 100.886L237.395 101.462L231.634 98.4668L228.178 99.5036L225.874 98.3517L223.454 108.258L221.841 111.023L214.698 128.416L212.624 137.977L211.357 138.092L204.674 153.989L200.181 160.785L198.568 161.937L194.42 170L193.614 178.524L191.079 186.127L192.577 193.038V193.153L192.577 193.153ZM234.745 98.5821L234.4 97.5454L234.284 98.3517L234.745 98.5821H234.745Z" fill="#AEC2C3" stroke="#01161E" stroke-width="2" stroke-linejoin="round"/>
</svg>
