<svg width="1187" height="699" viewBox="0 0 1187 699" fill="none" xmlns="http://www.w3.org/2000/svg">
<path d="M228.063 91.4403L228.178 89.482L227.948 89.5972L228.063 91.4403H228.063ZM252.604 80.958L253.295 79.8061L252.488 79.6909L252.604 80.958H252.604ZM250.415 78.8845L251.106 76.5807L250.415 76.3503V78.8845V78.8845ZM258.825 75.544L258.71 73.2402L256.751 76.2352L258.825 75.544H258.825ZM259.056 70.706L259.401 68.4022L259.171 67.8263L259.056 70.706H259.056ZM259.401 59.4174L259.286 58.1503L258.825 58.0351L259.401 59.4174H259.401ZM263.088 51.8148L262.051 51.6996L259.977 54.9249L263.088 51.8148V51.8148ZM260.208 48.7047L260.784 48.2439L260.899 47.8983L260.208 48.7047H260.208ZM259.632 49.0502L259.286 46.7464L258.249 48.7047L259.632 49.0502ZM259.056 45.8249L258.019 45.3641L258.825 46.5161L259.056 45.8249V45.8249ZM262.512 47.7831V46.2857L262.166 46.8616L262.512 47.7831ZM263.549 46.2857L263.088 45.9401H262.973L263.549 46.2857H263.549ZM256.982 43.7515L256.406 43.2907L256.175 43.1755L256.982 43.7515V43.7515ZM261.245 43.2907L258.134 44.0971L258.94 44.3274L261.245 43.2907ZM258.71 43.0603L258.134 42.3692L258.019 42.4844L258.71 43.0603H258.71ZM261.129 41.6781H260.669L261.245 41.9084L261.129 41.6781H261.129ZM238.548 100.771L242.695 105.263L242.004 113.902L242.81 116.091L249.032 119.432L266.545 121.044L267.236 123.118L275.531 123.233L283.366 124.27L296.154 122.887L302.491 123.924L304.219 123.118L336.595 130.49L338.784 130.951L338.553 129.799L339.014 124.615L338.438 119.662L351.803 59.5326L349.959 59.187L322.999 52.8516L299.496 46.8617L272.881 39.4895L264.932 37.5312L266.775 47.5528L265.047 50.7781L261.936 49.1655L264.932 63.1035L261.706 67.7111L260.208 71.9732V76.3504L253.41 81.0732L250.53 79.2301L247.765 80.6124L252.834 74.0466L251.567 78.539L254.447 75.4289L256.751 75.8896L256.06 70.1301L257.558 70.3605L260.669 63.4491L259.632 62.4124L255.599 67.5959L252.949 67.7111L255.83 64.4858L259.056 63.6795L257.903 57.8047L254.677 56.9984L253.064 54.2338L251.106 55.2706L240.506 50.6629L231.174 43.406L228.639 50.4326L228.409 53.4275L230.367 58.7263L229.1 75.8896L228.178 78.539L233.363 78.9998L228.178 82.6859L230.943 84.0681L228.754 91.4403L227.717 85.6808L225.759 92.3618L228.409 95.5872L231.289 95.3568L234.745 97.4302L236.474 100.771H238.548V100.771Z" fill="#E0F6F6" stroke="#01161E" stroke-width="2" stroke-linejoin="round"/>
</svg>
